<?xml version="1.0" encoding="UTF-8"?>
<svg id="Layer_1" data-name="Layer 1" xmlns="http://www.w3.org/2000/svg" viewBox="0 0 124.82 18.82">
  <defs>
    <style>
      .cls-1 {
        fill: #572e7f;
      }

      .cls-1, .cls-2 {
        stroke-width: 0px;
      }

      .cls-2 {
        fill: #231f20;
      }
    </style>
  </defs>
  <g>
    <path class="cls-2" d="M38.79,14.42l.49-1.9c.86.4,2.24.84,3.58.84,1.68,0,2.41-.69,2.41-1.57,0-.41-.2-.74-.58-.94s-1.19-.33-2.14-.45c-1.07-.12-1.91-.31-2.56-.68-.97-.54-1.34-1.47-1.34-2.39,0-1.91,1.76-3.3,4.39-3.3,1.53,0,2.84.31,3.84.77l-.53,1.83c-.79-.33-2.1-.66-3.25-.66-1.63,0-2.14.69-2.14,1.35,0,.35.13.68.59.91.45.2,1.15.28,2.08.41,1.01.13,1.93.33,2.51.66.94.53,1.39,1.37,1.39,2.46,0,1.98-1.52,3.51-4.49,3.51-1.73,0-3.15-.33-4.26-.88Z"/>
    <path class="cls-2" d="M55.41,9.25c-.61-.4-1.27-.66-2.01-.66-1.5,0-2.49.99-2.49,2.42,0,1.53,1.06,2.44,2.42,2.44.92,0,1.7-.4,2.26-.76l.63,1.55c-.48.4-1.6,1.01-3.1,1.01-2.8,0-4.42-1.86-4.42-4.26s1.8-4.22,4.54-4.22c1.3,0,2.24.43,2.84.84l-.66,1.63Z"/>
    <path class="cls-2" d="M62.88,9.02c-.13-.03-.45-.1-.74-.1-1.07,0-1.77.59-2.13,1.3v4.87h-2.16V6.95h1.52l.54,1.39h.08c.68-1.35,1.35-1.53,2.19-1.53.53,0,.91.17.94.2l-.25,2.03Z"/>
    <path class="cls-2" d="M65.52,3.05c.84,0,1.34.51,1.34,1.19s-.49,1.19-1.34,1.19-1.32-.49-1.32-1.19.48-1.19,1.32-1.19ZM64.45,15.09V6.95h2.16v8.15h-2.16Z"/>
    <path class="cls-2" d="M70.43,6.95l.5,1.2h.07c.58-1.04,1.45-1.37,2.71-1.37,2.19,0,3.69,1.63,3.69,4.14s-1.42,4.34-3.91,4.34c-1.06,0-1.83-.2-2.49-1.04l-.1.05s.18,1.07.18,1.53v3.02h-2.16V6.95h1.52ZM71.08,12.78c.3.25.86.68,2.03.68,1.53,0,2.14-1.02,2.14-2.52s-.86-2.34-2.14-2.34c-.79,0-1.5.3-2.03.79v3.4Z"/>
    <path class="cls-2" d="M81.73,8.76v3.41c0,.96.35,1.29,1.02,1.29.45,0,.88-.12,1.11-.2l.21,1.67s-.73.33-1.85.33c-1.65,0-2.64-.87-2.64-2.74v-3.76h-1.42v-1.81h1.3l1.16-2.03h1.1v2.03h2.47v1.81h-2.47Z"/>
    <path class="cls-2" d="M97.76,4.24h2.31v10.85h-2.16l-5.94-7.26h-.03s.15,1.67.15,2.49v4.77h-2.31V4.24h2.19l5.91,7.22h.03s-.15-1.68-.15-2.31v-4.92Z"/>
    <path class="cls-2" d="M101.98,11.2c0-2.79,1.5-4.42,4.12-4.42,2.36,0,3.46,1.22,3.46,3,0,.64-.12,1.3-.17,1.55h-5.28c.02,1.45.66,2.19,2.18,2.19,1.12,0,2.16-.33,2.79-.68l.38,1.57c-.53.36-1.68.84-3.33.84-2.52,0-4.16-1.4-4.16-4.06ZM104.19,9.95h3.23s.02-.18.02-.46c0-.68-.38-1.14-1.39-1.14-1.17,0-1.7.53-1.86,1.6Z"/>
    <path class="cls-2" d="M110.95,14.6l.48-1.7c.4.16,1.52.64,2.85.64,1.15,0,1.62-.48,1.62-1.01,0-.25-.1-.5-.43-.63-.25-.1-.76-.17-1.52-.26-1.07-.15-1.72-.35-2.18-.66-.5-.33-.81-.92-.81-1.65,0-1.42,1.17-2.56,3.53-2.56,1.42,0,2.57.38,3.08.63l-.53,1.65c-.56-.26-1.52-.54-2.52-.54-1.06,0-1.45.36-1.45.82,0,.21.12.43.38.53.26.12.78.18,1.48.28.86.12,1.5.25,1.98.5.71.36,1.11,1.02,1.11,1.88,0,1.48-1.2,2.74-3.65,2.74-1.5,0-2.92-.41-3.43-.66Z"/>
    <path class="cls-2" d="M122.35,8.76v3.41c0,.96.35,1.29,1.02,1.29.45,0,.88-.12,1.11-.2l.21,1.67s-.73.33-1.85.33c-1.65,0-2.64-.87-2.64-2.74v-3.76h-1.42v-1.81h1.3l1.16-2.03h1.1v2.03h2.47v1.81h-2.47Z"/>
  </g>
  <g>
    <path class="cls-1" d="M29.46.56h4.77v18.2h-4.59l-8.1-10.45-.05.03s.21,2.43.21,3.71v6.72h-4.77V.56h4.67l8,10.29h.05s-.18-2.43-.18-3.48V.56Z"/>
    <g>
      <path class="cls-2" d="M2.02,9.36c.94.55,2.31.89,3.85,1.08,1.37.17,2.56.32,3.16.53l2.46-3.24c-.77-.25-1.68-.43-2.67-.57-1.34-.21-2.57-.31-3.28-.55-.63-.24-.79-.66-.79-1.1,0-.81.63-1.65,2.78-1.65,1.91,0,3.96.5,5.24,1l.81-3.67c-1.6-.71-3.83-1.18-6.27-1.18C2.94,0,0,2.2,0,5.51c0,1.42.55,2.99,2.02,3.85Z"/>
      <path class="cls-2" d="M8.97,18.75c4.16-.43,6.03-2.77,6.03-5.71,0-.58-.12-1.11-.28-1.61-1.91,2.44-3.83,4.88-5.74,7.32Z"/>
    </g>
    <path class="cls-1" d="M16.91.56c-3.25,4.27-6.51,8.55-9.76,12.82-1.45-.89-2.91-1.77-4.36-2.66l-2.1,3.15c2.39,1.63,4.78,3.26,7.17,4.88,3.93-5,7.85-10,11.78-15-.91-1.06-1.82-2.13-2.73-3.19Z"/>
  </g>
</svg>